<svg width="84" height="26" viewBox="0 0 84 26" fill="none" xmlns="http://www.w3.org/2000/svg">
<path d="M15.6973 21.6152V25.5H3.52832V21.6152H15.6973ZM5.13867 1.32812V25.5H0.158203V1.32812H5.13867ZM37.3125 12.8496V13.9951C37.3125 15.8324 37.0635 17.4814 36.5654 18.9424C36.0674 20.4033 35.3646 21.6484 34.457 22.6777C33.5495 23.696 32.4648 24.4762 31.2031 25.0186C29.9525 25.5609 28.5635 25.832 27.0361 25.832C25.5199 25.832 24.1309 25.5609 22.8691 25.0186C21.6185 24.4762 20.5339 23.696 19.6152 22.6777C18.6966 21.6484 17.9827 20.4033 17.4736 18.9424C16.9756 17.4814 16.7266 15.8324 16.7266 13.9951V12.8496C16.7266 11.0013 16.9756 9.35221 17.4736 7.90234C17.9717 6.44141 18.6745 5.19629 19.582 4.16699C20.5007 3.1377 21.5853 2.35189 22.8359 1.80957C24.0977 1.26725 25.4867 0.996094 27.0029 0.996094C28.5303 0.996094 29.9193 1.26725 31.1699 1.80957C32.4316 2.35189 33.5163 3.1377 34.4238 4.16699C35.3424 5.19629 36.0508 6.44141 36.5488 7.90234C37.0579 9.35221 37.3125 11.0013 37.3125 12.8496ZM32.2822 13.9951V12.8164C32.2822 11.5326 32.166 10.4036 31.9336 9.42969C31.7012 8.45573 31.3581 7.63672 30.9043 6.97266C30.4505 6.30859 29.8971 5.81055 29.2441 5.47852C28.5911 5.13542 27.8441 4.96387 27.0029 4.96387C26.1618 4.96387 25.4147 5.13542 24.7617 5.47852C24.1198 5.81055 23.5719 6.30859 23.1182 6.97266C22.6755 7.63672 22.3379 8.45573 22.1055 9.42969C21.873 10.4036 21.7568 11.5326 21.7568 12.8164V13.9951C21.7568 15.2679 21.873 16.3968 22.1055 17.3818C22.3379 18.3558 22.681 19.1803 23.1348 19.8555C23.5885 20.5195 24.1419 21.0231 24.7949 21.3662C25.4479 21.7093 26.195 21.8809 27.0361 21.8809C27.8773 21.8809 28.6243 21.7093 29.2773 21.3662C29.9303 21.0231 30.4782 20.5195 30.9209 19.8555C31.3636 19.1803 31.7012 18.3558 31.9336 17.3818C32.166 16.3968 32.2822 15.2679 32.2822 13.9951ZM60.0566 12.8662V22.4453C59.6803 22.8991 59.0993 23.3916 58.3135 23.9229C57.5277 24.443 56.515 24.8913 55.2754 25.2676C54.0358 25.6439 52.5361 25.832 50.7764 25.832C49.2158 25.832 47.7936 25.5775 46.5098 25.0684C45.2259 24.5482 44.1191 23.79 43.1895 22.7939C42.2708 21.7979 41.5625 20.5804 41.0645 19.1416C40.5664 17.6917 40.3174 16.0371 40.3174 14.1777V12.667C40.3174 10.8076 40.5553 9.15299 41.0312 7.70312C41.5182 6.25326 42.21 5.03027 43.1064 4.03418C44.0029 3.03809 45.071 2.27995 46.3105 1.75977C47.5501 1.23958 48.9281 0.979492 50.4443 0.979492C52.5472 0.979492 54.2738 1.32259 55.624 2.00879C56.9743 2.68392 58.0036 3.62467 58.7119 4.83105C59.4313 6.02637 59.874 7.39876 60.04 8.94824H55.209C55.0872 8.12923 54.8548 7.41536 54.5117 6.80664C54.1686 6.19792 53.6761 5.72201 53.0342 5.37891C52.4033 5.03581 51.5843 4.86426 50.5771 4.86426C49.7471 4.86426 49.0055 5.03581 48.3525 5.37891C47.7106 5.71094 47.1683 6.20345 46.7256 6.85645C46.2829 7.50944 45.9453 8.31738 45.7129 9.28027C45.4805 10.2432 45.3643 11.361 45.3643 12.6338V14.1777C45.3643 15.4395 45.486 16.5573 45.7295 17.5312C45.973 18.4941 46.3327 19.3076 46.8086 19.9717C47.2956 20.6247 47.8932 21.1172 48.6016 21.4492C49.3099 21.7812 50.1344 21.9473 51.0752 21.9473C51.861 21.9473 52.514 21.8809 53.0342 21.748C53.5654 21.6152 53.9915 21.4548 54.3125 21.2666C54.6445 21.0674 54.8991 20.8792 55.0762 20.7021V16.4189H50.5273V12.8662H60.0566ZM83.9297 12.8496V13.9951C83.9297 15.8324 83.6807 17.4814 83.1826 18.9424C82.6846 20.4033 81.9818 21.6484 81.0742 22.6777C80.1667 23.696 79.082 24.4762 77.8203 25.0186C76.5697 25.5609 75.1807 25.832 73.6533 25.832C72.137 25.832 70.748 25.5609 69.4863 25.0186C68.2357 24.4762 67.151 23.696 66.2324 22.6777C65.3138 21.6484 64.5999 20.4033 64.0908 18.9424C63.5928 17.4814 63.3438 15.8324 63.3438 13.9951V12.8496C63.3438 11.0013 63.5928 9.35221 64.0908 7.90234C64.5889 6.44141 65.2917 5.19629 66.1992 4.16699C67.1178 3.1377 68.2025 2.35189 69.4531 1.80957C70.7148 1.26725 72.1038 0.996094 73.6201 0.996094C75.1475 0.996094 76.5365 1.26725 77.7871 1.80957C79.0488 2.35189 80.1335 3.1377 81.041 4.16699C81.9596 5.19629 82.668 6.44141 83.166 7.90234C83.6751 9.35221 83.9297 11.0013 83.9297 12.8496ZM78.8994 13.9951V12.8164C78.8994 11.5326 78.7832 10.4036 78.5508 9.42969C78.3184 8.45573 77.9753 7.63672 77.5215 6.97266C77.0677 6.30859 76.5143 5.81055 75.8613 5.47852C75.2083 5.13542 74.4613 4.96387 73.6201 4.96387C72.779 4.96387 72.0319 5.13542 71.3789 5.47852C70.737 5.81055 70.1891 6.30859 69.7354 6.97266C69.2926 7.63672 68.9551 8.45573 68.7227 9.42969C68.4902 10.4036 68.374 11.5326 68.374 12.8164V13.9951C68.374 15.2679 68.4902 16.3968 68.7227 17.3818C68.9551 18.3558 69.2982 19.1803 69.752 19.8555C70.2057 20.5195 70.7591 21.0231 71.4121 21.3662C72.0651 21.7093 72.8122 21.8809 73.6533 21.8809C74.4945 21.8809 75.2415 21.7093 75.8945 21.3662C76.5475 21.0231 77.0954 20.5195 77.5381 19.8555C77.9808 19.1803 78.3184 18.3558 78.5508 17.3818C78.7832 16.3968 78.8994 15.2679 78.8994 13.9951Z" fill="white"/>
</svg>
